<svg width="32" height="32" viewBox="0 0 32 32" fill="none" xmlns="http://www.w3.org/2000/svg">
  <rect width="32" height="32" rx="4" fill="#3B82F6"/>
  <path d="M6 10C6 8.34315 7.34315 7 9 7H23C24.6569 7 26 8.34315 26 10V22C26 23.6569 24.6569 25 23 25H9C7.34315 25 6 23.6569 6 22V10Z" fill="white"/>
  <path d="M9 7H16V25H9C7.34315 25 6 23.6569 6 22V10C6 8.34315 7.34315 7 9 7Z" fill="#10B981"/>
  <path d="M16 7H23C24.6569 7 26 8.34315 26 10V22C26 23.6569 24.6569 25 23 25H16V7Z" fill="#F59E0B"/>
  <path d="M12 12C12 11.4477 12.4477 11 13 11H19C19.5523 11 20 11.4477 20 12V20C20 20.5523 19.5523 21 19 21H13C12.4477 21 12 20.5523 12 20V12Z" fill="#1F2937"/>
  <path d="M13 11H16V21H13C12.4477 21 12 20.5523 12 20V12C12 11.4477 12.4477 11 13 11Z" fill="#111827"/>
</svg>
